<?xml version="1.0" encoding="iso-8859-1"?>
<!-- Generator: Adobe Illustrator 19.0.0, SVG Export Plug-In . SVG Version: 6.00 Build 0)  -->
<svg version="1.1" id="Capa_1" xmlns="http://www.w3.org/2000/svg" xmlns:xlink="http://www.w3.org/1999/xlink" x="0px" y="0px"
	 viewBox="0 0 512 512" style="enable-background:new 0 0 512 512;" xml:space="preserve">
<rect x="65.38" style="fill:#FFDAA8;" width="381.24" height="512"/>
<rect x="256" style="fill:#FFC473;" width="190.62" height="512"/>
<polygon style="fill:#FF623F;" points="297.723,153.073 307.569,210.5 256,183.391 204.431,210.5 214.277,153.073 172.559,112.41 
	230.212,104.028 256,51.78 281.788,104.028 339.441,112.41 "/>
<polygon style="fill:#E70020;" points="297.723,153.073 307.569,210.5 256,183.391 256,51.78 281.788,104.028 339.441,112.41 "/>
<rect x="288.06" y="421" style="fill:#787780;" width="78" height="30"/>
<g>
	<rect x="145.94" y="421" style="fill:#9F7953;" width="77.996" height="30"/>
	<rect x="163" y="256" style="fill:#9F7953;" width="186" height="30"/>
	<rect x="163" y="308.13" style="fill:#9F7953;" width="186" height="30"/>
</g>
<g>
	<rect x="256" y="256" style="fill:#715539;" width="93" height="30"/>
	<rect x="256" y="308.13" style="fill:#715539;" width="93" height="30"/>
	<rect x="288.06" y="421" style="fill:#715539;" width="78" height="30"/>
</g>
<g>
</g>
<g>
</g>
<g>
</g>
<g>
</g>
<g>
</g>
<g>
</g>
<g>
</g>
<g>
</g>
<g>
</g>
<g>
</g>
<g>
</g>
<g>
</g>
<g>
</g>
<g>
</g>
<g>
</g>
</svg>
