<?xml version="1.0" encoding="iso-8859-1"?>
<!-- Generator: Adobe Illustrator 19.0.0, SVG Export Plug-In . SVG Version: 6.00 Build 0)  -->
<svg version="1.1" id="Capa_1" xmlns="http://www.w3.org/2000/svg" xmlns:xlink="http://www.w3.org/1999/xlink" x="0px" y="0px"
	 viewBox="0 0 512 512" style="enable-background:new 0 0 512 512;" xml:space="preserve">
<polygon style="fill:#FF9A00;" points="240.976,374.081 240.976,406.475 240.976,511.725 270.953,511.725 270.953,406.475 
	270.953,374.081 "/>
<polygon style="fill:#D86100;" points="255.965,374.081 255.965,406.475 255.965,511.725 270.953,511.725 270.953,406.475 
	270.953,374.081 "/>
<path style="fill:#00C063;" d="M436.315,438.148c-8.651-31.191-36.296-56.881-57.965-72.939l-8.925,12.042l-90.455-2.528
	c-4.386-3.719-8.569-7.509-12.474-11.34l-10.497,10.699l0,0l0,0l-10.497,10.699c40.171,39.413,103.954,74.996,155.531,74.995
	c8.683,0,17.022-1.009,24.843-3.179l14.444-4.006L436.315,438.148z"/>
<path style="fill:#009A43;" d="M304.27,375.43l-25.299-0.707c-4.386-3.719-8.569-7.509-12.474-11.34L256,374.081l0,0l0,0
	l-10.497,10.699c40.171,39.413,103.954,74.996,155.531,74.995c8.683,0,17.022-1.009,24.843-3.179l14.444-4.006L304.27,375.43z"/>
<path style="fill:#00C063;" d="M245.504,363.382c-3.908,3.834-8.138,7.633-12.601,11.365l-94.185,2.719l-8.873-12.08
	c-22.03,16.182-50.126,42.088-58.867,73.605l-4.006,14.443l14.443,4.006c8.091,2.244,16.527,3.204,25.046,3.203
	c25.65,0,52.023-8.699,71.715-17.232c32.509-14.088,64.7-35.457,88.321-58.632L245.504,363.382z"/>
<path style="fill:#009A43;" d="M245.504,363.382c-3.908,3.834-8.138,7.633-12.601,11.365l-36.228,1.046L66.973,453.435l14.443,4.006
	c8.091,2.244,16.527,3.204,25.046,3.203c25.65,0,52.023-8.699,71.715-17.232c32.509-14.088,64.7-35.457,88.321-58.632
	L245.504,363.382z"/>
<path style="fill:#00C063;" d="M446.525,117.004l-2.443-14.79l-14.789,2.444c-42.55,7.031-90.07,40.117-133.804,93.165l11.564,9.535
	l0,0l-32.102,42.567l32.237,90.93l59.293-41.649l0,0l12.234,8.659c21.623-30.547,40.227-64.627,52.385-95.961
	C445.574,174.596,450.764,142.667,446.525,117.004z"/>
<path style="fill:#009A43;" d="M446.525,117.004l-2.443-14.79L294.925,306.269l12.263,34.587l59.293-41.649l0,0l12.234,8.659
	c21.623-30.547,40.227-64.627,52.385-95.961C445.574,174.596,450.764,142.667,446.525,117.004z"/>
<path style="fill:#00C063;" d="M241.975,290.168l-36.664-73.097l11.83-9.204c-26.6-34.189-80.398-93.059-141.846-103.21
	l-14.789-2.442l-2.442,14.789c-9.522,57.656,27.47,135.253,65.264,188.647l12.234-8.659l57.451,43.864l24.622-25.489
	L241.975,290.168z"/>
<path style="fill:#009A43;" d="M60.507,102.216l-2.442,14.789c-9.522,57.656,27.47,135.253,65.264,188.647l12.234-8.659
	l57.451,43.864l24.622-25.489L60.507,102.216z"/>
<path style="fill:#00C063;" d="M320.866,161.172C315.78,94.152,296.511,40.775,266.61,10.874L256.013,0.275l-10.599,10.599
	c-30.081,30.081-49.382,83.595-54.346,150.684c-4.38,59.179,3.052,123.085,19.878,170.95l14.14-4.971l5.35,33.049h44.514
	l12.118-33.149l14.141,4.97C318.023,284.562,325.372,220.55,320.866,161.172z"/>
<path style="fill:#009A43;" d="M320.866,161.172C315.78,94.152,296.511,40.775,266.61,10.874L256.013,0.275l-0.012,360.31h18.949
	l12.118-33.149l14.141,4.97C318.023,284.562,325.372,220.55,320.866,161.172z"/>
<path style="fill:#00C063;" d="M502.905,303.631c-24.002-21.991-62.391-31.735-108.108-27.459
	c-53.823,5.046-107.883,28.03-138.795,57.876c-30.912-29.845-84.973-52.829-138.794-57.876
	c-45.714-4.285-84.107,5.466-108.11,27.459L0,311.964l6.428,10.529c20.165,33.026,61.662,57.731,113.851,67.781
	c15.995,3.081,32.25,4.631,48.126,4.631c10.366,0,20.573-0.663,30.43-1.99c22.205-2.994,41.722-9.324,57.166-18.451
	c15.445,9.127,34.962,15.457,57.166,18.451c9.858,1.329,20.062,1.99,30.43,1.99c15.875,0,32.134-1.552,48.127-4.631
	c52.188-10.05,93.685-34.755,113.849-67.781L512,311.964L502.905,303.631z"/>
<path style="fill:#009A43;" d="M0,311.964l6.428,10.529c20.165,33.026,61.662,57.731,113.851,67.781
	c15.995,3.081,32.25,4.631,48.126,4.631c10.366,0,20.573-0.663,30.43-1.99c22.205-2.994,41.722-9.324,57.166-18.451
	c15.445,9.127,34.962,15.457,57.166,18.451c9.858,1.329,20.062,1.99,30.43,1.99c15.875,0,32.134-1.552,48.127-4.631
	c52.188-10.05,93.685-34.755,113.849-67.781L512,311.964l-256.035,41.47L0,311.964z"/>
<g>
</g>
<g>
</g>
<g>
</g>
<g>
</g>
<g>
</g>
<g>
</g>
<g>
</g>
<g>
</g>
<g>
</g>
<g>
</g>
<g>
</g>
<g>
</g>
<g>
</g>
<g>
</g>
<g>
</g>
</svg>
